HIERARCHY
ROOT Hips
{
	OFFSET -0.001795 -0.223333 0.028219
	CHANNELS 6 Xposition Yposition Zposition Zrotation Yrotation Xrotation 
	JOINT LeftUpLeg
	{
		OFFSET 0.069520 -0.091406 -0.006815
		CHANNELS 3 Zrotation Yrotation Xrotation
		JOINT LeftLeg
		{
			OFFSET 0.034277 -0.375199 -0.004496
			CHANNELS 3 Zrotation Yrotation Xrotation
			JOINT LeftFoot
			{
				OFFSET -0.013596 -0.397961 -0.043693
				CHANNELS 3 Zrotation Yrotation Xrotation
				JOINT LeftToe
				{
					OFFSET 0.026358 -0.055791 0.119288
					CHANNELS 3 Zrotation Yrotation Xrotation
					End Site
					{
						OFFSET 0.000000 0.000000 0.000000
					}
				}
			}
		}
	}
	JOINT RightUpLeg
	{
		OFFSET -0.067670 -0.090522 -0.004320
		CHANNELS 3 Zrotation Yrotation Xrotation
		JOINT RightLeg
		{
			OFFSET -0.038290 -0.382569 -0.008850
			CHANNELS 3 Zrotation Yrotation Xrotation
			JOINT RightFoot
			{
				OFFSET 0.015774 -0.398415 -0.042312
				CHANNELS 3 Zrotation Yrotation Xrotation
				JOINT RightToe
				{
					OFFSET -0.025372 -0.048144 0.123348
					CHANNELS 3 Zrotation Yrotation Xrotation
					End Site
					{
						OFFSET 0.000000 0.000000 0.000000
					}
				}
			}
		}
	}
	JOINT Spine
	{
		OFFSET -0.002533 0.108963 -0.026696
		CHANNELS 3 Zrotation Yrotation Xrotation
		JOINT Spine1
		{
			OFFSET 0.005487 0.135180 0.001092
			CHANNELS 3 Zrotation Yrotation Xrotation
			JOINT Spine2
			{
				OFFSET 0.001457 0.052922 0.025425
				CHANNELS 3 Zrotation Yrotation Xrotation
				JOINT Neck
				{
					OFFSET -0.002778 0.213870 -0.042857
					CHANNELS 3 Zrotation Yrotation Xrotation
					JOINT Head
					{
						OFFSET 0.005152 0.064970 0.051349
						CHANNELS 3 Zrotation Yrotation Xrotation
						End Site
						{
							OFFSET 0.000000 0.000000 0.000000
						}
					}
				}
				JOINT LeftShoulder
				{
					OFFSET 0.078845 0.121749 -0.034090
					CHANNELS 3 Zrotation Yrotation Xrotation
					JOINT LeftArm
					{
						OFFSET 0.090977 0.030469 -0.008868
						CHANNELS 3 Zrotation Yrotation Xrotation
						JOINT LeftForeArm
						{
							OFFSET 0.259612 -0.012772 -0.027456
							CHANNELS 3 Zrotation Yrotation Xrotation
							JOINT LeftHand
							{
								OFFSET 0.249234 0.008986 -0.001171
								CHANNELS 3 Zrotation Yrotation Xrotation
								End Site
								{
									OFFSET 0.000000 0.000000 0.000000
								}
							}
						}
					}
				}
				JOINT RightShoulder
				{
					OFFSET -0.081759 0.118833 -0.038615
					CHANNELS 3 Zrotation Yrotation Xrotation
					JOINT RightArm
					{
						OFFSET -0.096012 0.032551 -0.009143
						CHANNELS 3 Zrotation Yrotation Xrotation
						JOINT RightForeArm
						{
							OFFSET -0.253742 -0.013329 -0.021401
							CHANNELS 3 Zrotation Yrotation Xrotation
							JOINT RightHand
							{
								OFFSET -0.255298 0.007772 -0.005559
								CHANNELS 3 Zrotation Yrotation Xrotation
								End Site
								{
									OFFSET 0.000000 0.000000 0.000000
								}
							}
						}
					}
				}
			}
		}
	}
}
MOTION
Frames: 7
Frame Time: 0.050000
0.751123 0.945138 3.688042 178.752577 -0.132911 -163.990363 -31.691384 35.567129 -60.168627 62.134434 21.371330 46.191448 -76.308496 -1.475875 37.120834 0.000000 0.000000 0.000000 -2.966098 7.134315 -13.746453 8.396861 11.644359 11.239566 129.728151 42.193070 -63.234490 0.000000 0.000000 0.000000 1.933479 3.547647 17.138758 -5.743354 -0.139632 -27.981492 0.953351 15.795456 28.544794 16.392284 28.019240 -20.447330 0.000000 0.000000 0.000000 12.282090 18.208694 66.506049 -23.782558 -57.029557 26.582283 36.131377 0.494159 4.388190 0.000000 0.000000 0.000000 -22.469810 4.350362 -114.723695 -86.644898 -68.323469 61.896563 42.214615 -4.339195 -12.567474 0.000000 0.000000 0.000000 
0.755360 0.937933 3.656322 177.951566 -0.686330 -163.889602 -44.852113 34.319686 -70.321426 59.082147 18.801310 39.745533 -73.823610 -5.488115 39.341871 0.000000 0.000000 0.000000 -3.318634 7.024358 -9.924511 7.159929 10.419875 8.940232 133.721310 43.808976 -59.298351 0.000000 0.000000 0.000000 2.485057 4.467232 18.718847 -7.890378 -0.280808 -28.001109 2.277640 16.748018 29.650942 14.829186 24.177307 -22.414940 0.000000 0.000000 0.000000 9.945342 14.766971 59.473507 -34.786926 -53.442465 29.780955 35.894276 -5.065255 2.079856 0.000000 0.000000 0.000000 -18.786331 6.170819 -100.304106 -41.796190 -82.091181 30.535611 41.797094 4.634013 -9.167653 0.000000 0.000000 0.000000 
0.756568 0.928856 3.619507 178.125333 -0.156729 -163.172345 -55.351316 32.918515 -78.355044 52.474499 15.607232 32.606670 -73.590570 -5.359598 40.116506 0.000000 0.000000 0.000000 -4.123598 7.824454 -7.402095 7.345070 10.153565 8.098597 137.278333 45.638938 -56.702662 0.000000 0.000000 0.000000 2.713967 4.963362 19.448257 -8.779649 -0.353647 -28.544554 2.508700 18.482164 30.025232 15.354683 23.669800 -24.322815 0.000000 0.000000 0.000000 8.109865 14.200948 58.255559 -42.464309 -52.326842 32.373620 34.831410 -6.808588 0.703337 0.000000 0.000000 0.000000 -16.933308 7.755166 -96.001358 -6.640218 -83.050181 0.762390 43.447442 8.425453 -7.800859 0.000000 0.000000 0.000000 
0.755099 0.921162 3.576626 178.540248 0.546794 -161.854414 68.066810 -36.127645 -69.911931 -33.964076 -46.510788 -14.158419 -53.636394 -18.346632 164.133206 0.000000 0.000000 0.000000 -2.179486 -12.355142 -8.101651 -5.964508 -14.539059 13.603251 111.410453 3.548756 -21.046028 0.000000 0.000000 0.000000 -1.397378 -4.980806 19.266397 -8.869248 -5.736452 -31.165907 12.199954 33.889428 33.847693 13.100722 17.671880 -27.025529 0.000000 0.000000 0.000000 5.001678 11.389560 49.407575 -51.736023 -43.784209 36.356029 32.577287 -10.517015 -0.769030 0.000000 0.000000 0.000000 -12.275631 8.270683 -82.320830 53.406765 -72.539000 -55.407363 43.513793 12.141590 -6.863033 0.000000 0.000000 0.000000 
0.751186 0.919192 3.526066 178.569416 0.309848 -160.867233 65.225184 -36.090059 -69.955077 -34.458618 -42.748995 -10.349656 -60.435434 -18.715481 169.632447 0.000000 0.000000 0.000000 -2.930430 -11.616357 -4.566068 -5.316236 -13.505337 11.936355 108.504432 1.827076 -23.908015 0.000000 0.000000 0.000000 -1.443724 -4.308101 18.103561 -8.929851 -5.483071 -30.880591 11.541885 34.058463 34.754901 12.340362 15.472946 -30.110090 0.000000 0.000000 0.000000 5.029996 11.362911 47.948213 -58.374711 -42.915430 41.437707 32.350845 -12.098631 -1.682633 0.000000 0.000000 0.000000 -12.380827 7.895013 -79.884226 57.179573 -69.877442 -58.181841 44.792550 10.809801 -7.573360 0.000000 0.000000 0.000000 
0.744817 0.923719 3.465975 178.609654 0.264825 -160.177353 58.699142 -35.940166 -67.271080 -38.957327 -42.338315 -4.283123 -64.841404 -17.827953 175.159510 0.000000 0.000000 0.000000 -4.076860 -12.599692 -3.627440 -8.216995 -14.954799 15.173878 116.733643 -4.030019 -20.636036 0.000000 0.000000 0.000000 -2.282167 -3.659704 16.981434 -9.448402 -5.833214 -30.666112 12.110228 32.875998 35.474382 10.750399 13.621457 -30.773872 0.000000 0.000000 0.000000 4.609436 12.006464 47.048257 -61.887967 -42.083417 44.311743 31.825766 -14.911222 -2.749271 0.000000 0.000000 0.000000 -12.601664 9.258365 -77.202868 62.090991 -67.591418 -62.423244 46.767845 9.489292 -8.232117 0.000000 0.000000 0.000000 
0.735874 0.930043 3.397843 178.775642 -0.388722 -159.949607 -52.916396 30.330100 -70.758472 50.757863 16.430883 29.094510 -73.118222 -7.742203 33.901577 0.000000 0.000000 0.000000 -5.777707 10.396744 -2.834102 12.814715 12.986759 18.747118 -104.727067 50.605538 14.092481 0.000000 0.000000 0.000000 -1.087640 4.224090 16.213401 -10.330443 -0.056650 -28.630355 4.984125 19.747521 32.928262 10.802802 14.944381 -30.926353 0.000000 0.000000 0.000000 5.650758 14.192998 48.924999 -62.588381 -43.598713 43.426092 31.276836 -21.285053 -4.038058 0.000000 0.000000 0.000000 -15.766768 7.112577 -84.028900 64.651878 -76.578719 -67.398556 48.722985 4.150958 -10.253913 0.000000 0.000000 0.000000 
